<svg width="245" height="170" viewBox="0 0 245 170" fill="none" xmlns="http://www.w3.org/2000/svg">
<path d="M243 2H2V168H243V2Z" stroke="white" stroke-width="3"/>
<path d="M56.624 69.8C55.8987 67.88 55.216 66.0027 54.576 64.168C53.936 62.2907 53.2747 60.392 52.592 58.472H32.496L28.464 69.8H22C23.7067 65.1067 25.3067 60.776 26.8 56.808C28.2933 52.7973 29.744 49 31.152 45.416C32.6027 41.832 34.032 38.4187 35.44 35.176C36.848 31.8907 38.32 28.648 39.856 25.448H45.552C47.088 28.648 48.56 31.8907 49.968 35.176C51.376 38.4187 52.784 41.832 54.192 45.416C55.6427 49 57.1147 52.7973 58.608 56.808C60.1013 60.776 61.7013 65.1067 63.408 69.8H56.624ZM50.8 53.352C49.4347 49.64 48.0693 46.056 46.704 42.6C45.3813 39.1013 43.9947 35.752 42.544 32.552C41.0507 35.752 39.6213 39.1013 38.256 42.6C36.9333 46.056 35.6107 49.64 34.288 53.352H50.8ZM96.1175 64.424V69.8H69.4295V25.448H75.6375V64.424H96.1175ZM118.004 70.76C115.103 70.76 112.585 70.312 110.452 69.416C108.319 68.52 106.569 67.304 105.204 65.768C103.839 64.1893 102.815 62.3333 102.132 60.2C101.492 58.0667 101.172 55.7627 101.172 53.288V25.448H107.38V52.584C107.38 57.0213 108.361 60.2427 110.324 62.248C112.287 64.2533 114.847 65.256 118.004 65.256C119.583 65.256 121.012 65.0213 122.292 64.552C123.615 64.04 124.745 63.272 125.684 62.248C126.623 61.224 127.348 59.9227 127.86 58.344C128.372 56.7227 128.628 54.8027 128.628 52.584V25.448H134.836V53.288C134.836 55.7627 134.495 58.0667 133.812 60.2C133.172 62.3333 132.148 64.1893 130.74 65.768C129.375 67.304 127.625 68.52 125.492 69.416C123.401 70.312 120.905 70.76 118.004 70.76ZM167.251 51.24C167.933 52.0933 168.787 53.224 169.811 54.632C170.877 55.9973 171.965 57.5333 173.075 59.24C174.184 60.904 175.272 62.6533 176.339 64.488C177.448 66.3227 178.387 68.0933 179.155 69.8H172.37C171.517 68.1787 170.579 66.536 169.555 64.872C168.573 63.208 167.571 61.6293 166.547 60.136C165.523 58.6 164.499 57.1707 163.475 55.848C162.493 54.5253 161.597 53.3733 160.787 52.392C160.232 52.4347 159.656 52.456 159.059 52.456C158.504 52.456 157.928 52.456 157.331 52.456H151.763V69.8H145.555V26.088C147.304 25.6613 149.245 25.384 151.379 25.256C153.555 25.0853 155.539 25 157.331 25C163.56 25 168.296 26.1733 171.539 28.52C174.824 30.8667 176.467 34.3653 176.467 39.016C176.467 41.96 175.677 44.4773 174.099 46.568C172.563 48.6587 170.28 50.216 167.251 51.24ZM157.843 30.44C155.197 30.44 153.171 30.504 151.763 30.632V47.336H156.179C158.312 47.336 160.232 47.2293 161.939 47.016C163.645 46.8027 165.075 46.3973 166.227 45.8C167.421 45.2027 168.339 44.3707 168.979 43.304C169.619 42.1947 169.939 40.744 169.939 38.952C169.939 37.288 169.619 35.9013 168.979 34.792C168.339 33.6827 167.464 32.808 166.355 32.168C165.288 31.528 164.008 31.08 162.515 30.824C161.064 30.568 159.507 30.44 157.843 30.44ZM217.249 69.8C216.524 67.88 215.841 66.0027 215.201 64.168C214.561 62.2907 213.9 60.392 213.217 58.472H193.121L189.089 69.8H182.625C184.332 65.1067 185.932 60.776 187.425 56.808C188.918 52.7973 190.369 49 191.777 45.416C193.228 41.832 194.657 38.4187 196.065 35.176C197.473 31.8907 198.945 28.648 200.481 25.448H206.177C207.713 28.648 209.185 31.8907 210.593 35.176C212.001 38.4187 213.409 41.832 214.817 45.416C216.268 49 217.74 52.7973 219.233 56.808C220.726 60.776 222.326 65.1067 224.033 69.8H217.249ZM211.425 53.352C210.06 49.64 208.694 46.056 207.329 42.6C206.006 39.1013 204.62 35.752 203.169 32.552C201.676 35.752 200.246 39.1013 198.881 42.6C197.558 46.056 196.236 49.64 194.913 53.352H211.425ZM37.296 139.384C43.7813 139.384 47.024 137.165 47.024 132.728C47.024 131.363 46.7253 130.211 46.128 129.272C45.5733 128.291 44.8053 127.459 43.824 126.776C42.8427 126.051 41.712 125.432 40.432 124.92C39.1947 124.408 37.872 123.896 36.464 123.384C34.8427 122.829 33.3067 122.211 31.856 121.528C30.4053 120.803 29.1467 119.971 28.08 119.032C27.0133 118.051 26.16 116.899 25.52 115.576C24.9227 114.253 24.624 112.653 24.624 110.776C24.624 106.893 25.9467 103.864 28.592 101.688C31.2373 99.512 34.8853 98.424 39.536 98.424C42.224 98.424 44.656 98.7227 46.832 99.32C49.0507 99.875 50.672 100.493 51.696 101.176L49.712 106.232C48.816 105.677 47.472 105.144 45.68 104.632C43.9307 104.077 41.8827 103.8 39.536 103.8C38.3413 103.8 37.232 103.928 36.208 104.184C35.184 104.44 34.288 104.824 33.52 105.336C32.752 105.848 32.1333 106.509 31.664 107.32C31.2373 108.088 31.024 109.005 31.024 110.072C31.024 111.267 31.2587 112.269 31.728 113.08C32.1973 113.891 32.8587 114.616 33.712 115.256C34.5653 115.853 35.5467 116.408 36.656 116.92C37.808 117.432 39.0667 117.944 40.432 118.456C42.352 119.224 44.1013 119.992 45.68 120.76C47.3013 121.528 48.688 122.445 49.84 123.512C51.0347 124.579 51.952 125.859 52.592 127.352C53.232 128.803 53.552 130.573 53.552 132.664C53.552 136.547 52.1227 139.533 49.264 141.624C46.448 143.715 42.4587 144.76 37.296 144.76C35.5467 144.76 33.9253 144.632 32.432 144.376C30.9813 144.163 29.68 143.907 28.528 143.608C27.376 143.267 26.3733 142.925 25.52 142.584C24.7093 142.2 24.0693 141.88 23.6 141.624L25.456 136.504C26.4373 137.059 27.9307 137.677 29.936 138.36C31.9413 139.043 34.3947 139.384 37.296 139.384ZM90.6865 99.448V104.824H76.7345V143.8H70.5265V104.824H56.5745V99.448H90.6865ZM93.7 121.592C93.7 117.795 94.2547 114.445 95.364 111.544C96.516 108.643 98.052 106.232 99.972 104.312C101.935 102.349 104.196 100.877 106.756 99.896C109.359 98.915 112.111 98.424 115.012 98.424C117.871 98.424 120.559 98.915 123.076 99.896C125.636 100.877 127.876 102.349 129.796 104.312C131.716 106.232 133.231 108.643 134.34 111.544C135.492 114.445 136.068 117.795 136.068 121.592C136.068 125.389 135.492 128.739 134.34 131.64C133.231 134.541 131.716 136.973 129.796 138.936C127.876 140.856 125.636 142.307 123.076 143.288C120.559 144.269 117.871 144.76 115.012 144.76C112.111 144.76 109.359 144.269 106.756 143.288C104.196 142.307 101.935 140.856 99.972 138.936C98.052 136.973 96.516 134.541 95.364 131.64C94.2547 128.739 93.7 125.389 93.7 121.592ZM100.228 121.592C100.228 124.28 100.569 126.733 101.252 128.952C101.935 131.128 102.895 132.984 104.132 134.52C105.412 136.056 106.948 137.251 108.74 138.104C110.575 138.915 112.623 139.32 114.884 139.32C117.145 139.32 119.172 138.915 120.964 138.104C122.756 137.251 124.271 136.056 125.508 134.52C126.788 132.984 127.769 131.128 128.452 128.952C129.135 126.733 129.476 124.28 129.476 121.592C129.476 118.904 129.135 116.472 128.452 114.296C127.769 112.077 126.788 110.2 125.508 108.664C124.271 107.128 122.756 105.955 120.964 105.144C119.172 104.291 117.145 103.864 114.884 103.864C112.623 103.864 110.575 104.291 108.74 105.144C106.948 105.955 105.412 107.128 104.132 108.664C102.895 110.2 101.935 112.077 101.252 114.296C100.569 116.472 100.228 118.904 100.228 121.592ZM167.001 125.24C167.683 126.093 168.537 127.224 169.561 128.632C170.627 129.997 171.715 131.533 172.825 133.24C173.934 134.904 175.022 136.653 176.089 138.488C177.198 140.323 178.137 142.093 178.905 143.8H172.12C171.267 142.179 170.329 140.536 169.305 138.872C168.323 137.208 167.321 135.629 166.297 134.136C165.273 132.6 164.249 131.171 163.225 129.848C162.243 128.525 161.347 127.373 160.537 126.392C159.982 126.435 159.406 126.456 158.809 126.456C158.254 126.456 157.678 126.456 157.081 126.456H151.513V143.8H145.305V100.088C147.054 99.661 148.995 99.384 151.129 99.256C153.305 99.085 155.289 99 157.081 99C163.31 99 168.046 100.173 171.289 102.52C174.574 104.867 176.217 108.365 176.217 113.016C176.217 115.96 175.427 118.477 173.849 120.568C172.313 122.659 170.03 124.216 167.001 125.24ZM157.593 104.44C154.947 104.44 152.921 104.504 151.513 104.632V121.336H155.929C158.062 121.336 159.982 121.229 161.689 121.016C163.395 120.803 164.825 120.397 165.977 119.8C167.171 119.203 168.089 118.371 168.729 117.304C169.369 116.195 169.689 114.744 169.689 112.952C169.689 111.288 169.369 109.901 168.729 108.792C168.089 107.683 167.214 106.808 166.105 106.168C165.038 105.528 163.758 105.08 162.265 104.824C160.814 104.568 159.257 104.44 157.593 104.44ZM185.555 143.8V99.448H212.627V104.76H191.763V117.944H210.323V123.128H191.763V138.488H214.227V143.8H185.555Z" fill="white"/>
</svg>
